Jamelia: Shame about Single Mums. BBC HD 720p x264 aac mp4 w/subtitles [aularon]

- - -
Synopsis
- - -
Singer Jamelia Davis is a single mum and it isn't something she's proud of. But why? After all, millions of other women in Britain are in the same boat. Jamelia sets out to explore the source of her shame through the experiences of other single mums in the past. She begins in the Victorian workhouse, where unmarried mothers were deemed unfit to raise their own children. She discovers that even in the swinging sixties the stigma was still so great that many young women felt they had no choice but to give their babies up for adoption.


- - -
URL
- - -   
http://www.bbc.co.uk/programmes/b0140p9n


- - -
Technical Details
- - -
General
Complete name                    : BBC.Jamelia.Shame.about.Single.Mums/Jamelia_-_Jamelia_Shame_about_Single_Mums_b0140p9n_default.mp4
Format                           : MPEG-4
Format profile                   : Base Media
Codec ID                         : isom
File size                        : 1.06 GiB
Duration                         : 57mn 12s
Overall bit rate                 : 2 651 Kbps
Movie name                       : Jamelia: Shame about Single Mums
Album                            : Jamelia
Performer                        : Jamelia
Genre                            : Factual,Life Stories
Recorded date                    : 2011-08-29T21:00:00+01:00
Tagged date                      : UTC 2011-08-30 11:05:00
Writing application              : Lavf53.10.0
Cover                            : Yes
Comment                          : Recorded using get_iplayer, by Aularon.
rtng                             : 2
stik                             : 1
desc                             : The singer Jamelia is a single mum, but it's not something she's proud of. She explores where the sense of shame comes from by looking at stories of single mums from the past.
tvnn                             : BBC HD
tvsh                             : Jamelia
tven                             : b0140p9n
catg                             : Factual,Life Stories

Video
ID                               : 1
Format                           : AVC
Format/Info                      : Advanced Video Codec
Format profile                   : High@L4.1
Format settings, CABAC           : Yes
Format settings, ReFrames        : 6 frames
Format settings, GOP             : M=4, N=44
Codec ID                         : avc1
Codec ID/Info                    : Advanced Video Coding
Duration                         : 57mn 12s
Bit rate mode                    : Variable
Bit rate                         : 2 551 Kbps
Maximum bit rate                 : 3 500 Kbps
Width                            : 1 280 pixels
Height                           : 720 pixels
Display aspect ratio             : 16:9
Frame rate mode                  : Constant
Frame rate                       : 25.000 fps
Standard                         : PAL
Color space                      : YUV
Chroma subsampling               : 4:2:0
Bit depth                        : 8 bits
Scan type                        : Progressive
Bits/(Pixel*Frame)               : 0.111
Stream size                      : 1.02 GiB (96%)

Audio
ID                               : 2
Format                           : AAC
Format/Info                      : Advanced Audio Codec
Format profile                   : HE-AAC / LC
Codec ID                         : 40
Duration                         : 57mn 12s
Bit rate mode                    : Constant
Bit rate                         : 96.0 Kbps
Channel(s)                       : 2 channels
Channel positions                : Front: L R
Sampling rate                    : 48.0 KHz / 24.0 KHz
Compression mode                 : Lossy
Stream size                      : 38.8 MiB (4%)


                   ______                                     
                  (____  \                                    
                   ____)  )_____  ____ _____ _   _  ___ _____ 
                  |  __  (| ___ |/ ___|____ | | | |/___) ___ |
             _ _ _| |__)  ) ____( (___/ ___ | |_| |___ | ____|
            (_|_|_)______/|_____)\____)_____|____/(___/|_____)
                                                              
                   ______ _                 _             
                  / _____) |               (_)            
                 ( (____ | |__  _____  ____ _ ____   ____ 
                  \____ \|  _ \(____ |/ ___) |  _ \ / _  |
                  _____) ) | | / ___ | |   | | | | ( (_| |
                 (______/|_| |_\_____|_|   |_|_| |_|\___ |
                                                   (_____|
                                  _      
                                 (_)     
                                  _  ___ 
                                 | |/___)
                                 | |___ |
                                 |_(___/ 

                    _______             _               
                   (_______)           (_)              
                    _       _____  ____ _ ____   ____   
                   | |     (____ |/ ___) |  _ \ / _  |  
                   | |_____/ ___ | |   | | | | ( (_| |_ 
                    \______)_____|_|   |_|_| |_|\___ (_)
                                               (_____|  

                                    ;)
